<?xml version="1.0" encoding="UTF-8"?>
<svg width="400px" height="76px" viewBox="0 0 400 76" version="1.1" xmlns="http://www.w3.org/2000/svg" xmlns:xlink="http://www.w3.org/1999/xlink">
    <!-- Generator: Sketch 64 (93537) - https://sketch.com -->
    <title>Combined Shape</title>
    <desc>Created with Sketch.</desc>
    <g id="Page-1" stroke="none" stroke-width="1" fill="none" fill-rule="evenodd">
        <path d="M20.1892744,0 L20.189,0.002 L20.8123283,0.00288865603 L20.812,29.022 L30.8340291,29.0251315 C31.0657237,20.439984 31.0683259,11.2444178 31.1365216,2.53262183 L31.1543262,0.448704571 C30.9858015,0.233018253 30.9925812,0.083771025 31.3044489,0 L31.3044489,0 L51.6097482,0 L51.6097482,0 L51.6090247,28.9388222 C51.5944889,34.4747743 51.3663389,45.2848187 51.4160415,45.8526001 C51.369552,46.080804 51.3559925,46.9782131 51.369552,47.5857937 C51.4741535,52.1296497 55.0286705,55.7125461 59.5430039,55.7125461 C62.8328997,55.7143532 65.8030497,53.7545657 67.0792081,50.7399493 C68.3553666,47.7253328 67.6886274,44.2438676 65.3874814,41.9063778 C63.0863353,39.5688879 59.5996051,38.8312848 56.5405509,40.0348469 L56.5405509,40.0348469 L56.5405509,19.5976054 C70.6646711,17.7517542 78.2347269,23.5367694 83.7989503,31.854173 C88.5031162,38.8870875 90.3142734,51.153284 85.4532051,60.4152781 C81.4667223,68.0105177 73.6932745,73.9909986 64.3953555,75.3679246 C53.6504477,76.9595741 43.7491324,72.828796 38.0725591,66.395759 C33.7053071,61.4444881 31.1446312,56.342267 30.7279418,47.9493965 L20.6944346,47.9497241 C20.598815,56.6678753 20.8924411,64.348516 20.8123283,73.8263452 L20.8123283,73.8263452 L20.189,73.826 L20.1892744,74.4479495 L0,74.4479495 L0,0 L20.1892744,0 Z M124.681536,22.7129338 L124.681536,34.1759665 L136.517203,34.1759665 L136.517203,22.7129338 L143.84858,22.7129338 L143.84858,52.9968454 L136.517203,52.9968454 L136.517203,40.3356665 L124.681536,40.3356665 L124.681536,52.9968454 L117.350158,52.9968454 L117.350158,22.7129338 L124.681536,22.7129338 Z M162.626525,21.4511041 L162.626525,39.9786637 C162.622196,40.7857443 162.732708,41.5893791 162.954779,42.3657037 C163.160901,43.0941957 163.501108,43.7783982 163.958158,44.3836338 C164.429781,44.9922432 165.044504,45.4764829 165.748367,45.7938476 C166.491102,46.1405576 167.386043,46.3139126 168.43319,46.3139126 C169.480336,46.3139126 170.375277,46.1405576 171.118013,45.7938476 C171.826017,45.4734119 172.447069,44.9900069 172.929778,44.3836338 C173.397977,43.7851438 173.739606,43.0987514 173.934137,42.3657037 C174.140776,41.5868038 174.242914,40.7841712 174.237894,39.9786637 L174.237894,21.4511041 L181.70347,21.4511041 L181.70347,40.5863801 C181.704772,42.4380972 181.392523,44.1232767 180.766718,45.6419185 C180.166951,47.121626 179.250881,48.4541468 178.081895,49.5472756 C176.916512,50.631556 175.512042,51.4775544 173.868486,52.0852708 C172.22493,52.6929872 170.398794,52.9968454 168.390076,52.9968454 C166.351962,52.9968454 164.518313,52.6929872 162.889128,52.0852708 C161.259944,51.4775544 159.877358,50.631556 158.741371,49.5472756 C157.596617,48.4472571 156.703351,47.1153401 156.122199,45.6419185 C155.510764,44.1226274 155.205047,42.437448 155.205047,40.5863801 L155.205047,21.4511041 L162.626525,21.4511041 Z M208.049054,21.4511041 C210.179561,21.4529822 212.292933,21.8315704 214.291453,22.5693637 C216.336159,23.3167686 217.993644,24.4093974 219.263907,25.8472501 L214.355093,30.753163 C213.680064,29.8245596 212.755637,29.1060587 211.68887,28.6808705 C210.615846,28.2353636 209.465547,28.0053753 208.303613,28.0040292 C207.103708,27.9899103 205.914193,28.227608 204.811972,28.7017548 C203.779455,29.1489942 202.85019,29.8040071 202.08211,30.6259586 C201.306289,31.4665932 200.702557,32.4508266 200.304944,33.5231812 C199.871349,34.6936813 199.655978,35.9336646 199.669496,37.1817315 C199.654812,38.4506083 199.870099,39.7116606 200.304944,40.9038841 C200.693312,41.9759988 201.290209,42.9606678 202.061213,43.8011066 C202.814984,44.6098979 203.730496,45.2512509 204.748332,45.6835418 C205.832182,46.1426336 206.999225,46.3730603 208.176333,46.3603832 C209.615036,46.3603832 210.870418,46.0784451 211.94248,45.5145688 C212.963854,44.9940832 213.848274,44.2405919 214.524166,43.3150719 L219.55836,48.0520118 C218.202309,49.5963363 216.528511,50.8297333 214.651446,51.6678443 C212.704258,52.553845 210.461034,52.9968454 207.921774,52.9968454 C205.609211,52.9968454 203.472054,52.6171308 201.510301,51.8577016 C197.658051,50.4064923 194.583918,47.4184386 193.025311,43.6103 C192.207808,41.6642626 191.79874,39.52109 191.798107,37.1807822 C191.798107,34.784783 192.214457,32.6137646 193.047157,30.6677272 C193.834047,28.7882162 195.009337,27.0960351 196.496055,25.7020093 C197.989651,24.3178393 199.745221,23.2462703 201.659427,22.5503779 C203.633211,21.8175287 205.763087,21.4511041 208.049054,21.4511041 Z M236.731229,22.7129338 L236.731229,35.0342539 L236.857745,35.0342539 L247.581156,22.7158139 L256.650349,22.7158139 L243.723848,36.6567435 L257.413249,52.9968454 L247.962606,52.9968454 L236.81589,39.0520757 L236.731229,39.0520757 L236.731229,52.9968454 L229.652997,52.9968454 L229.652997,22.7129338 L236.731229,22.7129338 Z M281.265316,22.7129338 L294.006309,52.9968454 L285.76843,52.9968454 L283.382655,47.0512372 L271.511162,47.0512372 L269.258632,52.9968454 L261.198738,52.9968454 L274.068114,22.7129338 L281.265316,22.7129338 Z M313.824425,22.7129338 C315.049719,22.716664 316.271717,22.8382069 317.473027,23.0758331 C318.664767,23.2993438 319.809856,23.7186531 320.860389,24.3162191 C321.869472,24.897522 322.719351,25.7124796 323.33633,26.6904254 C323.973187,27.6888786 324.291615,28.9577461 324.291615,30.497028 C324.291615,32.1796775 323.828269,33.5701515 322.901578,34.66845 C321.974887,35.7667484 320.760636,36.5578305 319.258825,37.0416963 L319.258825,37.1271408 C320.11309,37.2655772 320.940624,37.5327203 321.712346,37.919183 C322.461696,38.2909656 323.138249,38.7905507 323.710646,39.3947815 C324.283811,40.0078687 324.739852,40.7178584 325.056817,41.490573 C325.398921,42.3483821 325.566829,43.26396 325.551031,44.1854364 C325.551031,45.8399245 325.217981,47.2300785 324.551881,48.3558984 C323.907353,49.4605485 322.998065,50.3930138 321.903403,51.0718829 C320.748902,51.7773447 319.477177,52.2768533 318.146601,52.5474814 C316.726271,52.8486515 315.277298,52.9992769 313.824425,52.9968157 L301.577287,52.9968157 L301.577287,22.7129338 L313.824425,22.7129338 Z M343.068597,21.4511041 L343.068597,39.9786637 C343.06395,40.785698 343.174124,41.5893319 343.395847,42.3657037 C343.602295,43.0942495 343.942808,43.778449 344.400132,44.3836338 C344.871129,44.9924277 345.485542,45.4767244 346.189229,45.7938476 C346.931909,46.1405576 347.826784,46.3139126 348.873853,46.3139126 C349.920922,46.3139126 350.816124,46.1405576 351.559458,45.7938476 C352.267135,45.472963 352.888043,44.9896345 353.37109,44.3836338 C353.838584,43.7848626 354.179819,43.0985433 354.374395,42.3657037 C354.58168,41.5868917 354.684468,40.7842577 354.680089,39.9786637 L354.680089,21.4511041 L362.14511,21.4511041 L362.14511,40.5863801 C362.145763,42.4380972 361.83321,44.1232767 361.20745,45.6419185 C360.608089,47.1218176 359.692036,48.4544108 358.522826,49.5472756 C357.358835,50.631556 355.954469,51.4775544 354.309728,52.0852708 C352.664988,52.6929872 350.838985,52.9968454 348.831722,52.9968454 C346.793759,52.9968454 344.960245,52.6929872 343.331181,52.0852708 C341.702117,51.4775544 340.319306,50.631556 339.18275,49.5472756 C338.03808,48.4472571 337.144881,47.1153401 336.563771,45.6419185 C335.952382,44.1226274 335.646688,42.437448 335.646688,40.5863801 L335.646688,21.4511041 L343.068597,21.4511041 Z M378.558043,22.7129338 L385.008078,33.9196324 L391.458113,22.7129338 L400,22.7129338 L388.382651,40.1647771 L388.382651,52.9968454 L381.078427,52.9968454 L381.078427,40.1647771 L369.716088,22.7129338 L378.558043,22.7129338 Z M312.869141,40.1657013 L308.743871,40.1657013 L308.743871,47.0953513 L312.913006,47.0953513 C313.516909,47.0932921 314.119657,47.0432066 314.715374,46.9455833 C315.304757,46.8559073 315.876143,46.6754509 316.408567,46.4108349 C316.909896,46.1586414 317.33639,45.7829117 317.646538,45.3202168 C317.965291,44.8478717 318.124181,44.2430395 318.124181,43.50092 C318.124181,42.2474133 317.646538,41.377607 316.691254,40.8924612 C315.735969,40.4073154 314.461931,40.1650625 312.869141,40.1657013 Z M277.535415,30.79658 L273.635309,41.1910737 L281.347987,41.1910737 L277.535415,30.79658 Z M312.391498,28.5308227 L308.743871,28.5308227 L308.743871,34.7750157 L312.74047,34.7750157 C314.129856,34.7750157 315.208288,34.4969209 315.975765,33.9407313 C316.743242,33.3845417 317.126656,32.564978 317.126006,31.4820404 C317.126006,30.4579859 316.727645,29.7094661 315.930925,29.2364809 C315.134205,28.7634957 313.954396,28.5282832 312.391498,28.5308227 Z" id="Combined-Shape" fill="#273A48" fill-rule="nonzero"></path>
    </g>
</svg>